<svg width="720" height="520" viewBox="0 0 720 520" fill="none" xmlns="http://www.w3.org/2000/svg" role="img" aria-labelledby="title desc">
  <title id="title">Illustration of cargo operations</title>
  <desc id="desc">Warehouse scene with stacked cargo, security shield, and logistics dashboard panels.</desc>
  <defs>
    <linearGradient id="panel-gradient" x1="120" y1="120" x2="580" y2="420" gradientUnits="userSpaceOnUse">
      <stop offset="0" stop-color="#FDF2F8" />
      <stop offset="1" stop-color="#F5F3FF" />
    </linearGradient>
    <linearGradient id="accent-gradient" x1="200" y1="180" x2="440" y2="340" gradientUnits="userSpaceOnUse">
      <stop offset="0" stop-color="#FB7185" />
      <stop offset="1" stop-color="#DB2777" />
    </linearGradient>
    <filter id="panel-shadow" x="-50%" y="-50%" width="200%" height="200%" color-interpolation-filters="sRGB">
      <feDropShadow dx="0" dy="12" stdDeviation="20" flood-color="#F472B6" flood-opacity="0.2" />
    </filter>
  </defs>
  <rect x="80" y="80" width="560" height="360" rx="32" fill="url(#panel-gradient)" />
  <g filter="url(#panel-shadow)">
    <rect x="140" y="130" width="440" height="220" rx="24" fill="white" />
    <rect x="140" y="370" width="280" height="70" rx="20" fill="white" />
  </g>
  <rect x="160" y="150" width="160" height="180" rx="20" fill="#FCE7F3" />
  <rect x="186" y="188" width="108" height="36" rx="10" fill="#FBCFE8" />
  <rect x="186" y="238" width="108" height="36" rx="10" fill="#FBCFE8" />
  <rect x="186" y="288" width="108" height="36" rx="10" fill="#FBCFE8" />
  <rect x="340" y="150" width="220" height="120" rx="20" fill="#EEF2FF" />
  <rect x="360" y="170" width="80" height="16" rx="8" fill="#A855F7" />
  <rect x="360" y="200" width="140" height="12" rx="6" fill="#C4B5FD" />
  <rect x="360" y="222" width="100" height="12" rx="6" fill="#DDD6FE" />
  <rect x="360" y="244" width="160" height="12" rx="6" fill="#EDE9FE" />
  <rect x="340" y="290" width="220" height="40" rx="16" fill="#DB2777" fill-opacity="0.12" />
  <rect x="360" y="302" width="132" height="16" rx="8" fill="#DB2777" fill-opacity="0.6" />
  <g transform="translate(220 410)">
    <rect x="-60" y="-30" width="120" height="60" rx="20" fill="#FBCFE8" />
    <rect x="-40" y="-16" width="80" height="32" rx="12" fill="#DB2777" />
    <rect x="-48" y="-8" width="32" height="16" rx="8" fill="#FCE7F3" />
    <rect x="12" y="-8" width="28" height="16" rx="8" fill="#FCE7F3" />
    <circle cx="-20" cy="22" r="14" fill="#1E1B4B" fill-opacity="0.2" />
    <circle cx="32" cy="22" r="14" fill="#1E1B4B" fill-opacity="0.2" />
  </g>
  <g transform="translate(500 378)">
    <rect x="-60" y="-60" width="120" height="120" rx="24" fill="white" />
    <path d="M0 20C30 20 52 0 52 -28C52 -58 31 -80 0 -80C-31 -80 -52 -58 -52 -28C-52 0 -30 20 0 20Z" fill="url(#accent-gradient)" transform="translate(0 0)" />
    <path d="M0 -50L-18 -14H-6V24H6V-14H18L0 -50Z" fill="white" />
  </g>
  <g transform="translate(292 212)">
    <rect x="-36" y="-24" width="72" height="48" rx="12" fill="white" />
    <rect x="-24" y="-12" width="48" height="24" rx="8" fill="#DB2777" fill-opacity="0.3" />
    <path d="M-16 0H16" stroke="#DB2777" stroke-width="4" stroke-linecap="round" />
    <path d="M0 -8V8" stroke="#DB2777" stroke-width="4" stroke-linecap="round" />
  </g>
  <g transform="translate(464 342)">
    <rect x="-32" y="-16" width="64" height="32" rx="10" fill="#FCE7F3" />
    <rect x="-18" y="-6" width="36" height="12" rx="6" fill="#DB2777" />
  </g>
  <g transform="translate(470 260)">
    <rect x="-24" y="-12" width="48" height="24" rx="8" fill="#EDE9FE" />
    <rect x="-12" y="-4" width="24" height="8" rx="4" fill="#C4B5FD" />
  </g>
  <g transform="translate(210 180)">
    <rect x="-40" y="-12" width="80" height="24" rx="10" fill="#DB2777" fill-opacity="0.4" />
    <rect x="-30" y="-4" width="60" height="8" rx="4" fill="#DB2777" />
  </g>
  <g transform="translate(210 230)">
    <rect x="-40" y="-12" width="80" height="24" rx="10" fill="#DB2777" fill-opacity="0.28" />
    <rect x="-30" y="-4" width="60" height="8" rx="4" fill="#DB2777" />
  </g>
  <g transform="translate(210 280)">
    <rect x="-40" y="-12" width="80" height="24" rx="10" fill="#DB2777" fill-opacity="0.2" />
    <rect x="-30" y="-4" width="60" height="8" rx="4" fill="#DB2777" />
  </g>
  <g transform="translate(408 356)">
    <rect x="-48" y="-24" width="96" height="48" rx="16" fill="#FBCFE8" />
    <rect x="-30" y="-10" width="60" height="20" rx="10" fill="#DB2777" fill-opacity="0.5" />
  </g>
</svg>
